<?xml version="1.0" encoding="utf-8"?>
<!-- Generator: Adobe Illustrator 28.0.0, SVG Export Plug-In . SVG Version: 6.00 Build 0)  -->
<svg version="1.1" id="Capa_1" xmlns="http://www.w3.org/2000/svg" xmlns:xlink="http://www.w3.org/1999/xlink" x="0px" y="0px"
	 viewBox="0 0 699.5 800" style="enable-background:new 0 0 699.5 800;" xml:space="preserve">
<style type="text/css">
	.st0{fill:#010002;}
	.st1{display:none;}
	.st2{display:inline;}
	.st3{fill:#FF0000;}
</style>
<g>
	<g>
		<g>
			<path class="st0" d="M358.2,0c-24.2-0.5-47.6,9.9-69.3,31c0,0-0.1,0-0.1,0c-20.7,0-37.5,16.8-37.5,37.5c0,3.5,0.5,7,1.5,10.3
				c-7.5,12.9-14.4,27.1-20.7,42.2c-4.2,10-8.4,21.4-12.7,34.6c-101.9-28.1-177-17.8-206.8,28.6C-18.6,232.9,8.9,313.5,87.4,400
				C9,486.5-18.7,567,12.6,615.8c18.9,29.6,56.4,44.8,108.7,44.2c7,9.3,17.9,14.8,29.7,14.8c14.9,0,28.1-8.8,34.1-22
				c7.9-1.6,16.4-3.6,25.8-6.1c29.2,96.4,76.3,152.1,130,153.2c48.3,1.1,93-41.9,126-120.9c4.2-10.1,8.4-21.6,12.8-34.8
				c13.3,3.7,25.2,6.6,36,8.8c84,16.7,144.6,3.4,170.7-37.2c31.3-49,3.6-129.4-74.8-215.8c56.7-62.5,87.8-122.1,87.9-168.6
				c0-17.8-4.4-33.7-13.1-47.2c-26.1-40.7-86.7-53.9-170.7-37.2c-8.2,1.6-17.3,3.8-27.5,6.4C459,56.9,411.9,1.2,358.2,0z
				 M654.6,595.5C638,621.4,588.8,629,523.1,616c-9.6-1.9-20.3-4.5-32.4-7.9c9.6-35.9,16.8-75.2,21.5-117
				c26.6-20.7,51.2-42.1,73.2-63.8C648.1,497,675.6,562.7,654.6,595.5z M44.4,595.5C23.6,562.8,51,497,113.7,427.3
				c21.1,20.7,44.4,41.2,69.6,61c3.1,43.4,9.1,84.2,17.8,121.5c-6.7,1.7-13.5,3.3-20.4,4.7c-7-9.1-17.9-14.7-29.7-14.7
				c-14.9,0-28.2,8.9-34.2,22.1C90.1,622,58.2,616.9,44.4,595.5z M454.6,597.1c-20.8-7.2-42-15.7-63.5-25.5
				c16.8-9.4,33.3-19.4,49.4-29.6c9.7-6.2,19.5-12.7,29.4-19.7C465.8,548.8,460.7,573.9,454.6,597.1z M258.6,541.9
				c16.2,10.3,32.6,20.2,49.1,29.5c-23.5,10.6-46.9,19.8-70,27.5c-5.8-25.1-10.3-51.9-13.5-80.1
				C235.6,526.8,247.1,534.5,258.6,541.9z M349.4,550.9c-24.3-12.7-48-26.5-70.4-40.8c-19.4-12.4-39.2-26.3-59-41.3
				c-1.3-23.7-1.7-47.5-1.2-71.6c0.5-22.8,1.8-45.7,3.9-68c18.9-14.2,37.8-27.4,56.3-39.2c22.4-14.4,46.1-28.1,70.4-40.8
				c24.7,12.9,48.5,26.6,70.7,40.8c19.5,12.5,39.3,26.3,59,41.3c1.3,23.6,1.7,47.4,1.2,71.7c-0.5,22.7-1.8,45.6-3.9,68
				c-18.9,14.2-37.8,27.4-56.3,39.2C397.9,524.3,374.1,538,349.4,550.9z M474.8,281.2c-11.4-8-22.9-15.8-34.4-23.1
				c-16.1-10.3-32.6-20.2-49.4-29.6c23.7-10.8,47.1-20.1,70.1-27.7C467,226,471.6,252.9,474.8,281.2z M258.6,258.1
				c-9.8,6.3-19.6,12.8-29.5,19.7c4-26.4,9.2-51.4,15.3-74.6c20.7,7.2,41.9,15.7,63.3,25.4C291.3,237.9,274.8,247.7,258.6,258.1z
				 M208.3,192.2c-9.6,35.9-16.7,75.1-21.4,116.7c-26.6,20.7-51.2,42.1-73.2,63.8C51,303,23.6,237.2,44.4,204.5
				C64.2,173.7,125.1,169.3,208.3,192.2z M181,396.3c-0.2,7.3-0.2,14.5-0.2,21.7c0,6.5,0.1,13,0.2,19.4
				c-14.4-12.3-28.1-24.9-41-37.5c13.4-13.2,27.6-26.2,42.5-38.9C181.8,373.5,181.3,385.2,181,396.3z M247.6,636.1
				c32.3-10.7,66.6-25,102-42.7c32.4,16.1,64,29.5,94,39.8c-3.9,11.9-7.8,22.2-11.5,31.3c-25.8,61.9-59.6,98.4-90.4,97.7
				C306.2,761.5,271.4,714.5,247.6,636.1z M518,403.6c0.3-13.9,0.3-27.6,0-41.2c14.4,12.3,28.1,24.9,41,37.5
				c-13.3,13.1-27.5,26.2-42.5,38.9C517.3,426.3,517.7,414.8,518,403.6z M515.7,311.7c-3.1-43.4-9.1-84.3-17.8-121.8
				c9.3-2.4,17.6-4.4,25.2-5.9c65.7-13,114.9-5.4,131.5,20.5c21,32.8-6.6,98.4-69.3,168.2C564.3,352,541,331.5,515.7,311.7z
				 M451.5,164.2c-32.8,10.8-67,25-101.9,42.4c-32.2-16.1-63.8-29.5-94.1-39.9c4-12,7.7-22.1,11.5-31.2c4.5-10.7,9.3-20.9,14.4-30.3
				c2.5,0.5,4.9,0.8,7.4,0.8c20.7,0,37.5-16.8,37.5-37.5c0-5.8-1.4-11.5-3.9-16.6c11.9-9.6,23.7-14.4,35-14.1
				C392.9,38.5,427.7,85.6,451.5,164.2z"/>
		</g>
	</g>
</g>
<g class="st1">
	<g class="st2">
		<path class="st3" d="M388.1,430.5c1.9,4.3,3,9.1,3,14.1c0,19.1-15.6,34.7-34.7,34.7c-16.4,0-30.2-11.5-33.8-26.9
			c-2.2,0.4-8.9,1.6-11.2,1.6c-19.1,0-34.7-15.5-34.7-34.7c0-16.8,11.9-30.8,27.7-34c2.2-0.5,4.6-0.7,6.9-0.7
			c10.9,0,20.8,5.2,27.2,13.3c0.3-6.9,2.7-13.2,6.4-18.5c1.5-2,3.2-3.9,5-5.6c4.6-4.1,10.2-7,16.5-8.2c2.1-0.4,4.4-0.6,6.6-0.6
			c19.1,0,34.7,15.6,34.7,34.7C408,411.4,397.7,424.2,388.1,430.5z"/>
	</g>
	<path class="st2" d="M388.1,430.5c1.9,4.3,3,9.1,3,14.1c0,19.1-15.6,34.7-34.7,34.7c-16.4,0-30.2-11.5-33.8-26.9
		c-2.2,0.4-8.9,1.6-11.2,1.6c-19.1,0-34.7-15.5-34.7-34.7c0-16.8,11.9-30.8,27.7-34c2.2-0.5,4.6-0.7,6.9-0.7
		c10.9,0,20.8,5.2,27.2,13.3c0.3-6.9,2.7-13.2,6.4-18.5c1.5-2,3.2-3.9,5-5.6c4.6-4.1,10.2-7,16.5-8.2c2.1-0.4,4.4-0.6,6.6-0.6
		c19.1,0,34.7,15.6,34.7,34.7C408,411.4,397.7,424.2,388.1,430.5z"/>
</g>
<g>
	<path class="st1" d="M370.3,370.7c-16.6,0-30.1,13.1-30.9,29.5c-5.7-7.3-14.6-11.9-24.3-11.9c-17.1,0-31,13.9-31,31s13.9,31,31,31
		c2,0,3.9-0.2,5.8-0.6c-0.6-2.5-0.9-5.1-0.9-7.8c0-14.2,8.5-26.5,20.7-32c1-0.5,2-0.9,3.1-1.2c0.1,0,0.1,0,0.2-0.1
		c3.5-1.2,7.3-1.9,11.3-1.9c14.3,0,26.6,8.6,32.1,20.9c8.5-5.7,13.9-15.3,13.9-25.8C401.3,384.6,387.4,370.7,370.3,370.7z
		 M299.8,402.8c0-1.2,0.9-2.1,2.1-2.1h5c1,0,1.7-0.6,1.8-0.8l1-3.8c0.3-1.1,1.4-1.8,2.6-1.5c1.1,0.3,1.8,1.4,1.5,2.6l-1,3.8
		c-0.6,2.3-3.1,4-5.9,4h-5C300.8,404.9,299.8,404,299.8,402.8z M323.3,411.7c-0.8,0.9-2.1,1-3,0.2l-4.6-3.9
		c-0.7-0.6-1.9-0.7-2.7-0.1l-6,4.2c-0.4,0.3-0.8,0.4-1.2,0.4c-0.7,0-1.3-0.3-1.7-0.9c-0.7-1-0.4-2.3,0.5-2.9l6-4.2
		c2.4-1.7,5.6-1.5,7.8,0.4l4.6,3.9C324,409.5,324.1,410.8,323.3,411.7z M326.5,404.9c-0.1,0-0.1,0-0.2,0l-6.1-0.5
		c-2.8-0.2-5.1-2.2-5.3-4.6l-0.3-3.1c-0.1-1.2,0.8-2.2,1.9-2.3c1.2-0.1,2.2,0.8,2.3,1.9l0.3,3.1c0.1,0.1,0.6,0.6,1.5,0.7l6.1,0.5
		c1.2,0.1,2,1.1,1.9,2.3C328.5,404.1,327.6,404.9,326.5,404.9z M354.9,384.8c0-1.2,0.9-2.1,2.1-2.1h5c1,0,1.7-0.6,1.8-0.8l1-3.8
		c0.3-1.1,1.4-1.8,2.6-1.5c1.1,0.3,1.8,1.4,1.5,2.6l-1,3.8c-0.6,2.3-3.1,4-5.9,4h-5C355.8,386.9,354.9,386,354.9,384.8z
		 M378.4,393.7c-0.8,0.9-2.1,1-3,0.2l-4.6-3.9c-0.7-0.6-1.9-0.7-2.7-0.1l-6,4.2c-0.4,0.3-0.8,0.4-1.2,0.4c-0.7,0-1.3-0.3-1.7-0.9
		c-0.7-1-0.4-2.3,0.5-2.9l6-4.2c2.4-1.7,5.6-1.5,7.8,0.4l4.6,3.9C379.1,391.5,379.2,392.8,378.4,393.7z M381.5,386.9
		c-0.1,0-0.1,0-0.2,0l-6.1-0.5c-2.8-0.2-5.1-2.2-5.3-4.6l-0.3-3.1c-0.1-1.2,0.8-2.2,1.9-2.3c1.2-0.1,2.2,0.8,2.3,1.9l0.3,3.1
		c0.1,0.1,0.6,0.6,1.5,0.7l6.1,0.5c1.2,0.1,2,1.1,1.9,2.3C383.6,386.1,382.6,386.9,381.5,386.9z"/>
	<path class="st1" d="M355.2,410.9c-17.1,0-31,13.9-31,31c0,17.1,13.9,31,31,31c17.1,0,31-13.9,31-31
		C386.2,424.8,372.3,410.9,355.2,410.9z M339.7,425.1c0-1.2,0.9-2.1,2.1-2.1h5c1,0,1.7-0.6,1.8-0.8l1-3.8c0.3-1.1,1.4-1.8,2.6-1.5
		c1.1,0.3,1.8,1.4,1.5,2.6l-1,3.8c-0.6,2.3-3.1,4-5.9,4h-5C340.7,427.2,339.7,426.2,339.7,425.1z M363.2,434c-0.8,0.9-2.1,1-3,0.2
		l-4.6-3.9c-0.8-0.6-1.9-0.7-2.7-0.1l-6,4.2c-0.4,0.3-0.8,0.4-1.2,0.4c-0.7,0-1.3-0.3-1.7-0.9c-0.7-1-0.4-2.3,0.5-2.9l6-4.2
		c2.4-1.7,5.6-1.5,7.8,0.4l4.6,3.9C363.9,431.7,364,433.1,363.2,434z M366.4,427.2c-0.1,0-0.1,0-0.2,0l-6.1-0.5
		c-2.8-0.2-5.1-2.2-5.3-4.6l-0.3-3.1c-0.1-1.2,0.8-2.2,1.9-2.3c1.2-0.1,2.2,0.8,2.3,1.9l0.3,3.1c0.1,0.1,0.6,0.6,1.5,0.7l6.1,0.5
		c1.2,0.1,2,1.1,1.9,2.3C368.4,426.4,367.5,427.2,366.4,427.2z"/>
</g>
<path d="M298.9,372.3c-9.1-21.4,6.7-44.6,6.7-44.6s16,4.2,28,15.2c4.1,3.8,8.4,7.9,10.7,13.4c0.8,1.5,3,6,3.4,7.9
	c-2.8,2.4-5.9,4.5-7.8,7.6c-2.4,4-5,8.4-5.2,13.1c-7.2-7.6-19.2-11-34.1-8.4L298.9,372.3z"/>
<path d="M373,353.6c-6.7,1-12.9,3.1-18.2,6c-0.3-0.6-0.6-1.2-1-1.8c-3.3-6.7-7.5-13-13.2-17.6c13.2-9.3,31.4-9.5,31.4-9.5
	S377.5,341.9,373,353.6z"/>
<path d="M406.9,395.9c0,13.9-8.8,25.8-21.2,30.3c-7.1-9.8-18.6-16.1-31.6-16.1c-2.7,0-5.3,0.3-7.8,0.8c-2.3-4.5-3.7-9.5-3.7-14.9
	c0-17.8,14.4-32.2,32.2-32.2S406.9,378.1,406.9,395.9z"/>
<path d="M314.9,448.5c-2.1,0.4-4.2,0.6-6.5,0.6c-17.8,0-32.2-14.4-32.2-32.2c0-17.8,14.4-32.2,32.2-32.2c16.2,0,29.7,12,31.9,27.7
	C325.7,417.9,315.2,432,314.9,448.5z"/>
<path d="M387.2,451.1c0,17.8-14.4,32.2-32.2,32.2s-32.2-14.4-32.2-32.2c0-1,0-2,0.1-3c1.1-11.7,8.3-21.5,18.5-26.2
	c3.1-1.5,6.5-2.4,10.1-2.8c1.1-0.1,2.3-0.2,3.4-0.2c9.6,0,18.2,4.2,24.1,10.9C384.2,435.5,387.2,443,387.2,451.1z"/>
</svg>
