<?xml version="1.0" encoding="utf-8"?>
<!-- Generator: Adobe Illustrator 28.0.0, SVG Export Plug-In . SVG Version: 6.00 Build 0)  -->
<svg version="1.1" id="Capa_1" xmlns="http://www.w3.org/2000/svg" xmlns:xlink="http://www.w3.org/1999/xlink" x="0px" y="0px"
	 viewBox="0 0 800 699.5" style="enable-background:new 0 0 800 699.5;" xml:space="preserve">
<style type="text/css">
	.st0{fill:#010002;}
	.st1{display:none;}
	.st2{display:inline;}
	.st3{fill:#FF0000;}
</style>
<g>
	<g>
		<g>
			<path class="st0" d="M800,358.2c0.5-24.2-9.9-47.6-31-69.3c0,0,0-0.1,0-0.1c0-20.7-16.8-37.5-37.5-37.5c-3.5,0-7,0.5-10.3,1.5
				c-12.9-7.5-27.1-14.4-42.2-20.7c-10-4.2-21.4-8.4-34.6-12.7c28.1-101.9,17.8-177-28.6-206.8C567.1-18.6,486.5,8.9,400,87.4
				C313.5,9,233-18.7,184.2,12.6c-29.6,18.9-44.8,56.4-44.2,108.7c-9.3,7-14.8,17.9-14.8,29.7c0,14.9,8.8,28.1,22,34.1
				c1.6,7.9,3.6,16.4,6.1,25.8C56.9,240.1,1.2,287.2,0,340.9c-1.1,48.3,41.9,93,120.9,126c10.1,4.2,21.6,8.4,34.8,12.8
				c-3.7,13.3-6.6,25.2-8.8,36c-16.7,84-3.4,144.6,37.2,170.7c49,31.3,129.4,3.6,215.8-74.8c62.5,56.7,122.1,87.8,168.6,87.9
				c17.8,0,33.7-4.4,47.2-13.1c40.7-26.1,53.9-86.7,37.2-170.7c-1.6-8.2-3.8-17.3-6.4-27.5C743.1,459,798.8,411.9,800,358.2z
				 M204.5,654.6C178.6,638,171,588.8,184,523.1c1.9-9.6,4.5-20.3,7.9-32.4c35.9,9.6,75.2,16.8,117,21.5
				c20.7,26.6,42.1,51.2,63.8,73.2C302.9,648.1,237.3,675.6,204.5,654.6z M204.5,44.4c32.7-20.8,98.4,6.5,168.1,69.3
				c-20.7,21.1-41.2,44.4-61,69.6c-43.4,3.1-84.2,9.1-121.5,17.8c-1.7-6.7-3.3-13.5-4.7-20.4c9.1-7,14.7-17.9,14.7-29.7
				c0-14.9-8.9-28.2-22.1-34.2C178,90.1,183.1,58.2,204.5,44.4z M202.9,454.6c7.2-20.8,15.7-42,25.5-63.5
				c9.4,16.8,19.4,33.3,29.6,49.4c6.2,9.7,12.7,19.5,19.7,29.4C251.2,465.8,226.1,460.7,202.9,454.6z M258.1,258.6
				c-10.3,16.2-20.2,32.6-29.5,49.1c-10.6-23.5-19.8-46.9-27.5-70c25.1-5.8,51.9-10.3,80.1-13.5
				C273.2,235.6,265.5,247.1,258.1,258.6z M249.1,349.4c12.7-24.3,26.5-48,40.8-70.4c12.4-19.4,26.3-39.2,41.3-59
				c23.7-1.3,47.5-1.7,71.6-1.2c22.8,0.5,45.7,1.8,68,3.9c14.2,18.9,27.4,37.8,39.2,56.3c14.4,22.4,28.1,46.1,40.8,70.4
				c-12.9,24.7-26.6,48.5-40.8,70.7c-12.5,19.5-26.3,39.3-41.3,59c-23.6,1.3-47.4,1.7-71.7,1.2c-22.7-0.5-45.6-1.8-68-3.9
				c-14.2-18.9-27.4-37.8-39.2-56.3C275.7,397.9,262,374.1,249.1,349.4z M518.8,474.8c8-11.4,15.8-22.9,23.1-34.4
				c10.3-16.1,20.2-32.6,29.6-49.4c10.8,23.7,20.1,47.1,27.7,70.1C574,467,547.1,471.6,518.8,474.8z M541.9,258.6
				c-6.3-9.8-12.8-19.6-19.7-29.5c26.4,4,51.4,9.2,74.6,15.3c-7.2,20.7-15.7,41.9-25.4,63.3C562.1,291.3,552.3,274.8,541.9,258.6z
				 M607.8,208.3c-35.9-9.6-75.1-16.7-116.7-21.4c-20.7-26.6-42.1-51.2-63.8-73.2C497,51,562.8,23.6,595.5,44.4
				C626.3,64.2,630.7,125.1,607.8,208.3z M403.7,181c-7.3-0.2-14.5-0.2-21.7-0.2c-6.5,0-13,0.1-19.4,0.2
				c12.3-14.4,24.9-28.1,37.5-41c13.2,13.4,26.2,27.6,38.9,42.5C426.5,181.8,414.8,181.3,403.7,181z M163.9,247.6
				c10.7,32.3,25,66.6,42.7,102c-16.1,32.4-29.5,64-39.8,94c-11.9-3.9-22.2-7.8-31.3-11.5c-61.9-25.8-98.4-59.6-97.7-90.4
				C38.5,306.2,85.5,271.4,163.9,247.6z M396.4,518c13.9,0.3,27.6,0.3,41.2,0c-12.3,14.4-24.9,28.1-37.5,41
				c-13.1-13.3-26.2-27.5-38.9-42.5C373.7,517.3,385.2,517.7,396.4,518z M488.3,515.7c43.4-3.1,84.3-9.1,121.8-17.8
				c2.4,9.3,4.4,17.6,5.9,25.2c13,65.7,5.4,114.9-20.5,131.5c-32.8,21-98.4-6.6-168.2-69.3C448,564.3,468.5,541,488.3,515.7z
				 M635.8,451.5c-10.8-32.8-25-67-42.4-101.9c16.1-32.2,29.5-63.8,39.9-94.1c12,4,22.1,7.7,31.2,11.5c10.7,4.5,20.9,9.3,30.3,14.4
				c-0.5,2.5-0.8,4.9-0.8,7.4c0,20.7,16.8,37.5,37.5,37.5c5.8,0,11.5-1.4,16.6-3.9c9.6,11.9,14.4,23.7,14.1,35
				C761.5,392.9,714.4,427.7,635.8,451.5z"/>
		</g>
	</g>
</g>
<g class="st1">
	<g class="st2">
		<path class="st3" d="M438.4,380.2c1.9,4.3,3,9.1,3,14.1c0,19.1-15.6,34.7-34.7,34.7c-16.4,0-30.2-11.5-33.8-26.9
			c-2.2,0.4-8.9,1.6-11.2,1.6c-19.1,0-34.7-15.5-34.7-34.7c0-16.8,11.9-30.8,27.7-34c2.2-0.5,4.6-0.7,6.9-0.7
			c10.9,0,20.8,5.2,27.2,13.3c0.3-6.9,2.7-13.2,6.4-18.5c1.5-2,3.2-3.9,5-5.6c4.6-4.1,10.2-7,16.5-8.2c2.1-0.4,4.4-0.6,6.6-0.6
			c19.1,0,34.7,15.6,34.7,34.7C458.2,361.1,447.9,373.9,438.4,380.2z"/>
	</g>
	<path class="st2" d="M438.4,380.2c1.9,4.3,3,9.1,3,14.1c0,19.1-15.6,34.7-34.7,34.7c-16.4,0-30.2-11.5-33.8-26.9
		c-2.2,0.4-8.9,1.6-11.2,1.6c-19.1,0-34.7-15.5-34.7-34.7c0-16.8,11.9-30.8,27.7-34c2.2-0.5,4.6-0.7,6.9-0.7
		c10.9,0,20.8,5.2,27.2,13.3c0.3-6.9,2.7-13.2,6.4-18.5c1.5-2,3.2-3.9,5-5.6c4.6-4.1,10.2-7,16.5-8.2c2.1-0.4,4.4-0.6,6.6-0.6
		c19.1,0,34.7,15.6,34.7,34.7C458.2,361.1,447.9,373.9,438.4,380.2z"/>
</g>
<g>
	<path class="st1" d="M420.5,320.5c-16.6,0-30.1,13.1-30.9,29.5c-5.7-7.3-14.6-11.9-24.3-11.9c-17.1,0-31,13.9-31,31
		c0,17.1,13.9,31,31,31c2,0,3.9-0.2,5.8-0.6c-0.6-2.5-0.9-5.1-0.9-7.8c0-14.2,8.5-26.5,20.7-32c1-0.5,2-0.9,3.1-1.2
		c0.1,0,0.1,0,0.2-0.1c3.5-1.2,7.3-1.9,11.3-1.9c14.3,0,26.6,8.6,32.1,20.9c8.5-5.7,13.9-15.3,13.9-25.8
		C451.5,334.4,437.6,320.5,420.5,320.5z M350.1,352.6c0-1.2,0.9-2.1,2.1-2.1h5c1,0,1.7-0.6,1.8-0.8l1-3.8c0.3-1.1,1.4-1.8,2.6-1.5
		c1.1,0.3,1.8,1.4,1.5,2.6l-1,3.8c-0.6,2.3-3.1,4-5.9,4h-5C351,354.7,350.1,353.7,350.1,352.6z M373.6,361.5c-0.8,0.9-2.1,1-3,0.2
		l-4.6-3.9c-0.7-0.6-1.9-0.7-2.7-0.1l-6,4.2c-0.4,0.3-0.8,0.4-1.2,0.4c-0.7,0-1.3-0.3-1.7-0.9c-0.7-1-0.4-2.3,0.5-2.9l6-4.2
		c2.4-1.7,5.6-1.5,7.8,0.4l4.6,3.9C374.2,359.2,374.3,360.6,373.6,361.5z M376.7,354.7c-0.1,0-0.1,0-0.2,0l-6.1-0.5
		c-2.8-0.2-5.1-2.2-5.3-4.6l-0.3-3.1c-0.1-1.2,0.8-2.2,1.9-2.3c1.2-0.1,2.2,0.8,2.3,1.9l0.3,3.1c0.1,0.1,0.6,0.6,1.5,0.7l6.1,0.5
		c1.2,0.1,2,1.1,1.9,2.3C378.7,353.8,377.8,354.7,376.7,354.7z M405.1,334.6c0-1.2,0.9-2.1,2.1-2.1h5c1,0,1.7-0.6,1.8-0.8l1-3.8
		c0.3-1.1,1.4-1.8,2.6-1.5c1.1,0.3,1.8,1.4,1.5,2.6l-1,3.8c-0.6,2.3-3.1,4-5.9,4h-5C406.1,336.7,405.1,335.7,405.1,334.6z
		 M428.7,343.5c-0.8,0.9-2.1,1-3,0.2l-4.6-3.9c-0.7-0.6-1.9-0.7-2.7-0.1l-6,4.2c-0.4,0.3-0.8,0.4-1.2,0.4c-0.7,0-1.3-0.3-1.7-0.9
		c-0.7-1-0.4-2.3,0.5-2.9l6-4.2c2.4-1.7,5.6-1.5,7.8,0.4l4.6,3.9C429.3,341.2,429.4,342.6,428.7,343.5z M431.8,336.7
		c-0.1,0-0.1,0-0.2,0l-6.1-0.5c-2.8-0.2-5.1-2.2-5.3-4.6l-0.3-3.1c-0.1-1.2,0.8-2.2,1.9-2.3c1.2-0.1,2.2,0.8,2.3,1.9l0.3,3.1
		c0.1,0.1,0.6,0.6,1.5,0.7l6.1,0.5c1.2,0.1,2,1.1,1.9,2.3C433.8,335.9,432.9,336.7,431.8,336.7z"/>
	<path class="st1" d="M405.5,360.6c-17.1,0-31,13.9-31,31c0,17.1,13.9,31,31,31s31-13.9,31-31S422.6,360.6,405.5,360.6z M390,374.8
		c0-1.2,0.9-2.1,2.1-2.1h5c1,0,1.7-0.6,1.8-0.8l1-3.8c0.3-1.1,1.4-1.8,2.6-1.5c1.1,0.3,1.8,1.4,1.5,2.6l-1,3.8c-0.6,2.3-3.1,4-5.9,4
		h-5C390.9,376.9,390,376,390,374.8z M413.5,383.7c-0.8,0.9-2.1,1-3,0.2l-4.6-3.9c-0.8-0.6-1.9-0.7-2.7-0.1l-6,4.2
		c-0.4,0.3-0.8,0.4-1.2,0.4c-0.7,0-1.3-0.3-1.7-0.9c-0.7-1-0.4-2.3,0.5-2.9l6-4.2c2.4-1.7,5.6-1.5,7.8,0.4l4.6,3.9
		C414.1,381.5,414.3,382.8,413.5,383.7z M416.6,376.9c-0.1,0-0.1,0-0.2,0l-6.1-0.5c-2.8-0.2-5.1-2.2-5.3-4.6l-0.3-3.1
		c-0.1-1.2,0.8-2.2,1.9-2.3c1.2-0.1,2.2,0.8,2.3,1.9l0.3,3.1c0.1,0.1,0.6,0.6,1.5,0.7l6.1,0.5c1.2,0.1,2,1.1,1.9,2.3
		C418.7,376.1,417.7,376.9,416.6,376.9z"/>
</g>
<path d="M349.1,322c-9.1-21.4,6.7-44.6,6.7-44.6s16,4.2,28,15.2c4.1,3.8,8.4,7.9,10.7,13.4c0.8,1.5,3,6,3.4,7.9
	c-2.8,2.4-5.9,4.5-7.8,7.6c-2.4,4-5,8.4-5.2,13.1c-7.2-7.6-19.2-11-34.1-8.4L349.1,322z"/>
<path d="M423.2,303.3c-6.7,1-12.9,3.1-18.2,6c-0.3-0.6-0.6-1.2-1-1.8c-3.3-6.7-7.5-13-13.2-17.6c13.2-9.3,31.4-9.5,31.4-9.5
	S427.7,291.7,423.2,303.3z"/>
<path d="M457.2,345.6c0,13.9-8.8,25.8-21.2,30.3c-7.1-9.8-18.6-16.1-31.6-16.1c-2.7,0-5.3,0.3-7.8,0.8c-2.3-4.5-3.7-9.5-3.7-14.9
	c0-17.8,14.4-32.2,32.2-32.2S457.2,327.8,457.2,345.6z"/>
<path d="M365.2,398.2c-2.1,0.4-4.2,0.6-6.5,0.6c-17.8,0-32.2-14.4-32.2-32.2c0-17.8,14.4-32.2,32.2-32.2c16.2,0,29.7,12,31.9,27.7
	C375.9,367.7,365.5,381.7,365.2,398.2z"/>
<path d="M437.5,400.9c0,17.8-14.4,32.2-32.2,32.2s-32.2-14.4-32.2-32.2c0-1,0-2,0.1-3c1.1-11.7,8.3-21.5,18.5-26.2
	c3.1-1.5,6.5-2.4,10.1-2.8c1.1-0.1,2.3-0.2,3.4-0.2c9.6,0,18.2,4.2,24.1,10.9C434.4,385.3,437.5,392.7,437.5,400.9z"/>
</svg>
