<?xml version="1.0" encoding="utf-8"?>
<!-- Generator: Adobe Illustrator 28.0.0, SVG Export Plug-In . SVG Version: 6.00 Build 0)  -->
<svg version="1.1" id="Capa_1" xmlns="http://www.w3.org/2000/svg" xmlns:xlink="http://www.w3.org/1999/xlink" x="0px" y="0px"
	 viewBox="0 0 131.7 155.6" style="enable-background:new 0 0 131.7 155.6;" xml:space="preserve">
<style type="text/css">
	.st0{display:none;}
	.st1{display:inline;}
	.st2{fill:#FF0000;}
</style>
<g class="st0">
	<g class="st1">
		<path class="st2" d="M111.8,102.8c1.9,4.3,3,9.1,3,14.1c0,19.1-15.6,34.7-34.7,34.7c-16.4,0-30.2-11.5-33.8-26.9
			c-2.2,0.4-8.9,1.6-11.2,1.6c-19.1,0-34.7-15.5-34.7-34.7c0-16.8,11.9-30.8,27.7-34c2.2-0.5,4.6-0.7,6.9-0.7
			c10.9,0,20.8,5.2,27.2,13.3c0.3-6.9,2.7-13.2,6.4-18.5c1.5-2,3.2-3.9,5-5.6c4.6-4.1,10.2-7,16.5-8.2c2.1-0.4,4.4-0.6,6.6-0.6
			c19.1,0,34.7,15.6,34.7,34.7C131.7,83.7,121.3,96.5,111.8,102.8z"/>
	</g>
	<path class="st1" d="M111.8,102.8c1.9,4.3,3,9.1,3,14.1c0,19.1-15.6,34.7-34.7,34.7c-16.4,0-30.2-11.5-33.8-26.9
		c-2.2,0.4-8.9,1.6-11.2,1.6c-19.1,0-34.7-15.5-34.7-34.7c0-16.8,11.9-30.8,27.7-34c2.2-0.5,4.6-0.7,6.9-0.7
		c10.9,0,20.8,5.2,27.2,13.3c0.3-6.9,2.7-13.2,6.4-18.5c1.5-2,3.2-3.9,5-5.6c4.6-4.1,10.2-7,16.5-8.2c2.1-0.4,4.4-0.6,6.6-0.6
		c19.1,0,34.7,15.6,34.7,34.7C131.7,83.7,121.3,96.5,111.8,102.8z"/>
</g>
<g>
	<path class="st0" d="M94,43.1c-16.6,0-30.1,13.1-30.9,29.5c-5.7-7.3-14.6-11.9-24.3-11.9c-17.1,0-31,13.9-31,31s13.9,31,31,31
		c2,0,3.9-0.2,5.8-0.6c-0.6-2.5-0.9-5.1-0.9-7.8c0-14.2,8.5-26.5,20.7-32c1-0.5,2-0.9,3.1-1.2c0.1,0,0.1,0,0.2-0.1
		C71.2,79.7,75,79,78.9,79c14.3,0,26.6,8.6,32.1,20.9c8.5-5.7,13.9-15.3,13.9-25.8C124.9,57,111,43.1,94,43.1z M23.5,75.2
		c0-1.2,0.9-2.1,2.1-2.1h5c1,0,1.7-0.6,1.8-0.8l1-3.8c0.3-1.1,1.4-1.8,2.6-1.5c1.1,0.3,1.8,1.4,1.5,2.6l-1,3.8c-0.6,2.3-3.1,4-5.9,4
		h-5C24.4,77.3,23.5,76.3,23.5,75.2z M47,84.1c-0.8,0.9-2.1,1-3,0.2l-4.6-3.9c-0.7-0.6-1.9-0.7-2.7-0.1l-6,4.2
		c-0.4,0.3-0.8,0.4-1.2,0.4c-0.7,0-1.3-0.3-1.7-0.9c-0.7-1-0.4-2.3,0.5-2.9l6-4.2c2.4-1.7,5.6-1.5,7.8,0.4l4.6,3.9
		C47.7,81.8,47.8,83.2,47,84.1z M50.2,77.3c-0.1,0-0.1,0-0.2,0l-6.1-0.5c-2.8-0.2-5.1-2.2-5.3-4.6l-0.3-3.1
		c-0.1-1.2,0.8-2.2,1.9-2.3c1.2-0.1,2.2,0.8,2.3,1.9l0.3,3.1c0.1,0.1,0.6,0.6,1.5,0.7l6.1,0.5c1.2,0.1,2,1.1,1.9,2.3
		C52.2,76.4,51.2,77.3,50.2,77.3z M78.6,57.2c0-1.2,0.9-2.1,2.1-2.1h5c1,0,1.7-0.6,1.8-0.8l1-3.8c0.3-1.1,1.4-1.8,2.6-1.5
		c1.1,0.3,1.8,1.4,1.5,2.6l-1,3.8c-0.6,2.3-3.1,4-5.9,4h-5C79.5,59.3,78.6,58.3,78.6,57.2z M102.1,66.1c-0.8,0.9-2.1,1-3,0.2
		l-4.6-3.9c-0.7-0.6-1.9-0.7-2.7-0.1l-6,4.2c-0.4,0.3-0.8,0.4-1.2,0.4c-0.7,0-1.3-0.3-1.7-0.9c-0.7-1-0.4-2.3,0.5-2.9l6-4.2
		c2.4-1.7,5.6-1.5,7.8,0.4l4.6,3.9C102.7,63.8,102.8,65.2,102.1,66.1z M105.2,59.3c-0.1,0-0.1,0-0.2,0l-6.1-0.5
		c-2.8-0.2-5.1-2.2-5.3-4.6l-0.3-3.1c-0.1-1.2,0.8-2.2,1.9-2.3c1.2-0.1,2.2,0.8,2.3,1.9l0.3,3.1c0.1,0.1,0.6,0.6,1.5,0.7l6.1,0.5
		c1.2,0.1,2,1.1,1.9,2.3C107.2,58.4,106.3,59.3,105.2,59.3z"/>
	<path class="st0" d="M78.9,83.2c-17.1,0-31,13.9-31,31s13.9,31,31,31s31-13.9,31-31S96,83.2,78.9,83.2z M63.4,97.4
		c0-1.2,0.9-2.1,2.1-2.1h5c1,0,1.7-0.6,1.8-0.8l1-3.8c0.3-1.1,1.4-1.8,2.6-1.5c1.1,0.3,1.8,1.4,1.5,2.6l-1,3.8c-0.6,2.3-3.1,4-5.9,4
		h-5C64.3,99.5,63.4,98.6,63.4,97.4z M86.9,106.3c-0.8,0.9-2.1,1-3,0.2l-4.6-3.9c-0.8-0.6-1.9-0.7-2.7-0.1l-6,4.2
		c-0.4,0.3-0.8,0.4-1.2,0.4c-0.7,0-1.3-0.3-1.7-0.9c-0.7-1-0.4-2.3,0.5-2.9l6-4.2c2.4-1.7,5.6-1.5,7.8,0.4l4.6,3.9
		C87.6,104.1,87.7,105.4,86.9,106.3z M90.1,99.5c-0.1,0-0.1,0-0.2,0L83.7,99c-2.8-0.2-5.1-2.2-5.3-4.6l-0.3-3.1
		c-0.1-1.2,0.8-2.2,1.9-2.3c1.2-0.1,2.2,0.8,2.3,1.9l0.3,3.1c0.1,0.1,0.6,0.6,1.5,0.7l6.1,0.5c1.2,0.1,2,1.1,1.9,2.3
		C92.1,98.7,91.1,99.5,90.1,99.5z"/>
</g>
<path d="M22.6,44.6C13.4,23.2,29.3,0,29.3,0s16,4.2,28,15.2c4.1,3.8,8.4,7.9,10.7,13.4c0.8,1.5,3,6,3.4,7.9
	c-2.8,2.4-5.9,4.5-7.8,7.6c-2.4,4-5,8.4-5.2,13.1c-7.2-7.6-19.2-11-34.1-8.4L22.6,44.6z"/>
<path d="M96.6,25.9c-6.7,1-12.9,3.1-18.2,6c-0.3-0.6-0.6-1.2-1-1.8c-3.3-6.7-7.5-13-13.2-17.6c13.2-9.3,31.4-9.5,31.4-9.5
	S101.1,14.3,96.6,25.9z"/>
<path d="M130.6,68.2c0,13.9-8.8,25.8-21.2,30.3c-7.1-9.8-18.6-16.1-31.6-16.1c-2.7,0-5.3,0.3-7.8,0.8c-2.3-4.5-3.7-9.5-3.7-14.9
	C66.3,50.4,80.7,36,98.4,36S130.6,50.4,130.6,68.2z"/>
<path d="M38.6,120.8c-2.1,0.4-4.2,0.6-6.5,0.6C14.4,121.5,0,107.1,0,89.3c0-17.8,14.4-32.2,32.2-32.2c16.2,0,29.7,12,31.9,27.7
	C49.4,90.3,38.9,104.3,38.6,120.8z"/>
<path d="M110.9,123.5c0,17.8-14.4,32.2-32.2,32.2s-32.2-14.4-32.2-32.2c0-1,0-2,0.1-3C47.8,108.8,55,99,65.2,94.3
	c3.1-1.5,6.5-2.4,10.1-2.8c1.1-0.1,2.3-0.2,3.4-0.2c9.6,0,18.2,4.2,24.1,10.9C107.9,107.8,110.9,115.3,110.9,123.5z"/>
</svg>
