<?xml version="1.0" encoding="utf-8"?>
<!-- Generator: Adobe Illustrator 28.0.0, SVG Export Plug-In . SVG Version: 6.00 Build 0)  -->
<svg version="1.1" id="Layer_1" xmlns="http://www.w3.org/2000/svg" xmlns:xlink="http://www.w3.org/1999/xlink" x="0px" y="0px"
	 viewBox="0 0 987.3 108.5" style="enable-background:new 0 0 987.3 108.5;" xml:space="preserve">
<style type="text/css">
	.st0{fill:#FFFFFF;}
</style>
<g>
	<g>
		<g>
			<path class="st0" d="M752.6,55.6c0.1-3.7-1.5-7.3-4.7-10.6c0,0,0,0,0,0c0-3.2-2.6-5.7-5.7-5.7c-0.5,0-1.1,0.1-1.6,0.2
				c-2-1.1-4.1-2.2-6.4-3.2c-1.5-0.6-3.3-1.3-5.3-1.9c4.3-15.5,2.7-27-4.4-31.6C717-2,704.7,2.3,691.5,14.2
				C678.3,2.3,666.1-2,658.6,2.8c-4.5,2.9-6.8,8.6-6.8,16.6c-1.4,1.1-2.3,2.7-2.3,4.5c0,2.3,1.3,4.3,3.4,5.2
				c0.2,1.2,0.6,2.5,0.9,3.9c-14.7,4.5-23.2,11.6-23.4,19.8c-0.2,7.4,6.4,14.2,18.5,19.2c1.5,0.6,3.3,1.3,5.3,2
				c-0.6,2-1,3.8-1.3,5.5c-2.5,12.8-0.5,22.1,5.7,26c7.5,4.8,19.8,0.6,32.9-11.4c9.5,8.7,18.6,13.4,25.7,13.4c2.7,0,5.1-0.7,7.2-2
				c6.2-4,8.2-13.2,5.7-26c-0.2-1.3-0.6-2.6-1-4.2C743.9,70.9,752.4,63.8,752.6,55.6z M661.7,100.8c-4-2.5-5.1-10-3.1-20.1
				c0.3-1.5,0.7-3.1,1.2-4.9c5.5,1.5,11.5,2.6,17.9,3.3c3.2,4.1,6.4,7.8,9.7,11.2C676.7,99.8,666.7,104,661.7,100.8z M661.7,7.7
				c5-3.2,15,1,25.7,10.6c-3.2,3.2-6.3,6.8-9.3,10.6c-6.6,0.5-12.9,1.4-18.5,2.7c-0.3-1-0.5-2.1-0.7-3.1c1.4-1.1,2.2-2.7,2.2-4.5
				c0-2.3-1.4-4.3-3.4-5.2C657.7,14.6,658.4,9.8,661.7,7.7z M661.5,70.3c1.1-3.2,2.4-6.4,3.9-9.7c1.4,2.6,3,5.1,4.5,7.5
				c0.9,1.5,1.9,3,3,4.5C668.8,72,665,71.2,661.5,70.3z M669.9,40.4c-1.6,2.5-3.1,5-4.5,7.5c-1.6-3.6-3-7.2-4.2-10.7
				c3.8-0.9,7.9-1.6,12.2-2.1C672.2,36.8,671,38.6,669.9,40.4z M668.5,54.2c1.9-3.7,4-7.3,6.2-10.7c1.9-3,4-6,6.3-9
				c3.6-0.2,7.2-0.3,10.9-0.2c3.5,0.1,7,0.3,10.4,0.6c2.2,2.9,4.2,5.8,6,8.6c2.2,3.4,4.3,7,6.2,10.7c-2,3.8-4.1,7.4-6.2,10.8
				c-1.9,3-4,6-6.3,9c-3.6,0.2-7.2,0.3-10.9,0.2c-3.5-0.1-7-0.3-10.4-0.6c-2.2-2.9-4.2-5.8-6-8.6C672.6,61.6,670.5,58,668.5,54.2z
				 M709.7,73.4c1.2-1.7,2.4-3.5,3.5-5.2c1.6-2.5,3.1-5,4.5-7.5c1.6,3.6,3.1,7.2,4.2,10.7C718.1,72.2,714,72.9,709.7,73.4z
				 M713.2,40.4c-1-1.5-2-3-3-4.5c4,0.6,7.8,1.4,11.4,2.3c-1.1,3.2-2.4,6.4-3.9,9.7C716.3,45.3,714.8,42.8,713.2,40.4z M723.3,32.7
				c-5.5-1.5-11.5-2.6-17.8-3.3c-3.2-4.1-6.4-7.8-9.7-11.2c10.6-9.6,20.7-13.8,25.7-10.6C726.1,10.7,726.8,20,723.3,32.7z
				 M692.1,28.5c-1.1,0-2.2,0-3.3,0c-1,0-2,0-3,0c1.9-2.2,3.8-4.3,5.7-6.3c2,2,4,4.2,5.9,6.5C695.6,28.6,693.8,28.6,692.1,28.5z
				 M655.5,38.7c1.6,4.9,3.8,10.2,6.5,15.6c-2.5,4.9-4.5,9.8-6.1,14.3c-1.8-0.6-3.4-1.2-4.8-1.8c-9.4-3.9-15-9.1-14.9-13.8
				C636.4,47.6,643.5,42.3,655.5,38.7z M691,79.9c2.1,0,4.2,0,6.3,0c-1.9,2.2-3.8,4.3-5.7,6.3c-2-2-4-4.2-5.9-6.5
				C687.5,79.8,689.3,79.9,691,79.9z M705,79.6c6.6-0.5,12.9-1.4,18.6-2.7c0.4,1.4,0.7,2.7,0.9,3.8c2,10,0.8,17.5-3.1,20.1
				c-5,3.2-15-1-25.7-10.6C698.9,87,702,83.4,705,79.6z M727.5,69.8c-1.6-5-3.8-10.2-6.5-15.6c2.5-4.9,4.5-9.7,6.1-14.4
				c1.8,0.6,3.4,1.2,4.8,1.8c1.6,0.7,3.2,1.4,4.6,2.2c-0.1,0.4-0.1,0.8-0.1,1.1c0,3.2,2.6,5.7,5.7,5.7c0.9,0,1.8-0.2,2.5-0.6
				c1.5,1.8,2.2,3.6,2.2,5.3C746.7,60.8,739.5,66.2,727.5,69.8z"/>
		</g>
	</g>
</g>
<path class="st0" d="M683.8,50c-1.4-3.3,1-6.8,1-6.8s2.4,0.6,4.3,2.3c0.6,0.6,1.3,1.2,1.6,2c0.1,0.2,0.5,0.9,0.5,1.2
	c-0.4,0.4-0.9,0.7-1.2,1.2c-0.4,0.6-0.8,1.3-0.8,2c-1.1-1.2-2.9-1.7-5.2-1.3L683.8,50z"/>
<path class="st0" d="M695.1,47.2c-1,0.2-2,0.5-2.8,0.9c0-0.1-0.1-0.2-0.1-0.3c-0.5-1-1.1-2-2-2.7c2-1.4,4.8-1.5,4.8-1.5
	S695.8,45.4,695.1,47.2z"/>
<path class="st0" d="M700.3,53.6c0,2.1-1.4,3.9-3.2,4.6c-1.1-1.5-2.8-2.5-4.8-2.5c-0.4,0-0.8,0-1.2,0.1c-0.4-0.7-0.6-1.5-0.6-2.3
	c0-2.7,2.2-4.9,4.9-4.9S700.3,50.9,700.3,53.6z"/>
<path class="st0" d="M686.2,61.7c-0.3,0.1-0.6,0.1-1,0.1c-2.7,0-4.9-2.2-4.9-4.9c0-2.7,2.2-4.9,4.9-4.9c2.5,0,4.5,1.8,4.9,4.2
	C687.9,57,686.3,59.1,686.2,61.7z"/>
<path class="st0" d="M697.3,62.1c0,2.7-2.2,4.9-4.9,4.9s-4.9-2.2-4.9-4.9c0-0.2,0-0.3,0-0.5c0.2-1.8,1.3-3.3,2.8-4
	c0.5-0.2,1-0.4,1.5-0.4c0.2,0,0.3,0,0.5,0c1.5,0,2.8,0.6,3.7,1.7C696.8,59.7,697.3,60.8,697.3,62.1z"/>
<g>
	<path class="st0" d="M72,2.6c6.2,1.6,11.8,4,16.9,7.2s9.4,7.2,12.9,12s5.5,10.4,6,16.7v69.3H82.4V43.7c-0.2-3.4-1.3-6.4-3.2-9
		s-4.2-4.8-6.9-6.6c-2.7-1.8-5.8-3.2-9.1-4.1c-3.3-0.9-6.4-1.4-9.4-1.4H25.4v85.2H0V0.1h54.2C59.9,0.1,65.9,1,72,2.6z"/>
	<path class="st0" d="M155.8,106c-6.3-1.7-12-4.1-17-7.4c-5-3.2-9.2-7.2-12.5-12c-3.3-4.7-5.2-10.2-5.7-16.3V0.9h25.4v66.9
		c1.9,6,5.4,10.5,10.6,13.6c5.2,3.1,11.1,4.7,17.8,4.7c3,0,6.1-0.5,9.4-1.4c3.3-0.9,6.3-2.3,9.1-4.1c2.7-1.8,5-4,6.9-6.6
		s2.9-5.6,3.2-9V0.9h25.4v69.3c-0.5,6.4-2.5,11.9-6,16.7c-3.5,4.8-7.8,8.8-12.9,12s-10.7,5.6-16.9,7.2c-6.2,1.6-12.1,2.4-17.8,2.4
		C168.4,108.5,162,107.7,155.8,106z"/>
	<path class="st0" d="M339.9,23.3h-36.4v84.5h-25.6V23.3h-36.8V0.9h98.9V23.3z"/>
	<path class="st0" d="M435.2,94.3c-0.4-1.5-1.1-3.4-2.1-5.6s-2.3-4.4-3.8-6.4c-1.6-2-3.3-3.7-5.3-5.1c-2-1.4-4.2-2.1-6.5-2.1h-29.7
		V50h16.6c9.5,0,16.9-1,22.2-2.9s8-5.5,8-10.6c0-2.7-1-5-3.1-6.6c-2.1-1.7-4.6-3-7.6-4s-6.3-1.7-9.8-2.1c-3.6-0.4-6.8-0.6-9.8-0.6
		H378v84.5h-25.4V0.9h54c5.7,0,11.8,0.3,18.1,0.8c6.4,0.6,12.2,2,17.6,4.4c5.4,2.4,9.7,5.9,13.2,10.5c3.4,4.6,5.1,11,5.1,19.2
		c0,7.4-1.3,13-3.9,17c-2.6,4-6.1,7.4-10.5,10.3c4.4,3.2,7.8,7.4,10.5,12.6c2.6,5.2,3.9,10.1,3.9,14.9v17.2h-25.4V94.3z"/>
	<path class="st0" d="M473.3,0.9h25.4v106.9h-25.4V0.9z"/>
	<path class="st0" d="M583.5,2.6c6.2,1.6,11.8,4,16.9,7.2c5.1,3.2,9.4,7.2,12.9,12s5.5,10.4,6,16.7v69.3h-25.4V43.7
		c-0.2-3.4-1.3-6.4-3.2-9c-1.9-2.6-4.2-4.8-6.9-6.6c-2.7-1.8-5.8-3.2-9.1-4.1c-3.3-0.9-6.4-1.4-9.4-1.4h-28.4v85.2h-25.4V0.1h54.2
		C571.4,0.1,577.3,1,583.5,2.6z"/>
</g>
<g>
	<path class="st0" d="M784.4,0.7v51.6c7.1,9.3,16.6,19.3,28.6,29.9c4.7-3.9,9.5-8.2,14.2-13.1c4.7-4.9,9.5-10.5,14.2-16.8V0.7h25.4
		v59.4c-6.5,8-13.6,16.2-21.5,24.7s-16.4,16.1-25.8,22.8H806c-8.1-6.7-16.4-14-24.9-22c-8.5-7.9-15.9-16.4-22.2-25.5V0.7H784.4z"/>
	<path class="st0" d="M951.5,2.4c6.2,1.6,11.8,4,16.9,7.2c5.1,3.2,9.4,7.2,12.9,12s5.5,10.4,6,16.7v69.3h-25.4V75.1h-47.3V49.7h47.3
		v-6.2c-0.2-3.4-1.3-6.4-3.2-9c-1.9-2.6-4.2-4.8-6.9-6.6c-2.7-1.8-5.8-3.2-9.1-4.1c-3.3-0.9-6.4-1.4-9.4-1.4
		c-6.7,0-12.7,1.6-17.8,4.7c-5.2,3.1-8.7,7.7-10.6,13.6v66.9h-25.4V38.1c0.5-6.1,2.4-11.5,5.7-16.3c3.3-4.7,7.5-8.7,12.5-12
		c5-3.2,10.7-5.7,17-7.4c6.3-1.7,12.6-2.5,19-2.5C939.4,0,945.3,0.8,951.5,2.4z"/>
</g>
</svg>
