<?xml version="1.0" encoding="utf-8"?>
<!-- Generator: Adobe Illustrator 28.0.0, SVG Export Plug-In . SVG Version: 6.00 Build 0)  -->
<svg version="1.1" id="Layer_1" xmlns="http://www.w3.org/2000/svg" xmlns:xlink="http://www.w3.org/1999/xlink" x="0px" y="0px"
	 viewBox="0 0 1013.2 162.4" style="enable-background:new 0 0 1013.2 162.4;" xml:space="preserve">
<style type="text/css">
	.st0{fill:#FFFFFF;}
</style>
<g>
	<g>
		<g>
			<path class="st0" d="M705.4,0c-4.9-0.1-9.7,2-14.1,6.3c0,0,0,0,0,0c-4.2,0-7.6,3.4-7.6,7.6c0,0.7,0.1,1.4,0.3,2.1
				c-1.5,2.6-2.9,5.5-4.2,8.6c-0.8,2-1.7,4.3-2.6,7c-20.7-5.7-35.9-3.6-42,5.8c-6.4,9.9-0.8,26.3,15.2,43.8
				c-15.9,17.5-21.5,33.9-15.2,43.8c3.8,6,11.5,9.1,22.1,9c1.4,1.9,3.6,3,6,3c3,0,5.7-1.8,6.9-4.5c1.6-0.3,3.3-0.7,5.2-1.2
				c5.9,19.6,15.5,30.9,26.4,31.1c9.8,0.2,18.9-8.5,25.6-24.5c0.9-2,1.7-4.4,2.6-7.1c2.7,0.8,5.1,1.3,7.3,1.8
				c17.1,3.4,29.4,0.7,34.6-7.6c6.4-9.9,0.7-26.3-15.2-43.8c11.5-12.7,17.8-24.8,17.8-34.2c0-3.6-0.9-6.8-2.6-9.6
				c-5.3-8.3-17.6-10.9-34.6-7.5c-1.7,0.3-3.5,0.8-5.6,1.3C725.9,11.6,716.3,0.2,705.4,0z M765.6,120.9c-3.4,5.3-13.3,6.8-26.7,4.2
				c-2-0.4-4.1-0.9-6.6-1.6c1.9-7.3,3.4-15.3,4.4-23.7c5.4-4.2,10.4-8.5,14.9-12.9C764.3,100.9,769.9,114.2,765.6,120.9z
				 M641.7,120.9c-4.2-6.6,1.3-20,14.1-34.1c4.3,4.2,9,8.4,14.1,12.4c0.6,8.8,1.8,17.1,3.6,24.7c-1.4,0.3-2.7,0.7-4.1,1
				c-1.4-1.9-3.6-3-6-3c-3,0-5.7,1.8-6.9,4.5C651,126.2,644.5,125.2,641.7,120.9z M725,121.2c-4.2-1.5-8.5-3.2-12.9-5.2
				c3.4-1.9,6.8-3.9,10-6c2-1.3,4-2.6,6-4C727.3,111.4,726.2,116.5,725,121.2z M685.2,110c3.3,2.1,6.6,4.1,10,6
				c-4.8,2.2-9.5,4-14.2,5.6c-1.2-5.1-2.1-10.5-2.7-16.3C680.5,106.9,682.9,108.5,685.2,110z M703.6,111.8
				c-4.9-2.6-9.7-5.4-14.3-8.3c-3.9-2.5-8-5.3-12-8.4c-0.3-4.8-0.3-9.6-0.2-14.5c0.1-4.6,0.4-9.3,0.8-13.8c3.8-2.9,7.7-5.6,11.4-8
				c4.6-2.9,9.4-5.7,14.3-8.3c5,2.6,9.8,5.4,14.3,8.3c4,2.5,8,5.3,12,8.4c0.3,4.8,0.3,9.6,0.2,14.5c-0.1,4.6-0.4,9.3-0.8,13.8
				c-3.8,2.9-7.7,5.6-11.4,8C713.5,106.4,708.7,109.2,703.6,111.8z M729.1,57.1c-2.3-1.6-4.7-3.2-7-4.7c-3.3-2.1-6.6-4.1-10-6
				c4.8-2.2,9.6-4.1,14.2-5.6C727.5,45.9,728.4,51.3,729.1,57.1z M685.2,52.4c-2,1.3-4,2.6-6,4c0.8-5.4,1.9-10.4,3.1-15.1
				c4.2,1.5,8.5,3.2,12.8,5.2C691.8,48.3,688.5,50.3,685.2,52.4z M675,39c-1.9,7.3-3.4,15.2-4.3,23.7c-5.4,4.2-10.4,8.5-14.9,12.9
				c-12.7-14.2-18.3-27.5-14.1-34.1C645.8,35.3,658.1,34.4,675,39z M669.5,80.4c0,1.5,0,3,0,4.4c0,1.3,0,2.6,0,3.9
				c-2.9-2.5-5.7-5-8.3-7.6c2.7-2.7,5.6-5.3,8.6-7.9C669.6,75.8,669.5,78.2,669.5,80.4z M683,129.1c6.6-2.2,13.5-5.1,20.7-8.7
				c6.6,3.3,13,6,19.1,8.1c-0.8,2.4-1.6,4.5-2.3,6.4c-5.2,12.6-12.1,20-18.3,19.8C694.9,154.6,687.8,145,683,129.1z M737.9,81.9
				c0.1-2.8,0.1-5.6,0-8.4c2.9,2.5,5.7,5.1,8.3,7.6c-2.7,2.7-5.6,5.3-8.6,7.9C737.7,86.5,737.8,84.2,737.9,81.9z M737.4,63.3
				c-0.6-8.8-1.8-17.1-3.6-24.7c1.9-0.5,3.6-0.9,5.1-1.2c13.3-2.6,23.3-1.1,26.7,4.2c4.3,6.7-1.3,20-14.1,34.1
				C747.3,71.4,742.5,67.3,737.4,63.3z M724.4,33.3c-6.7,2.2-13.6,5.1-20.7,8.6c-6.5-3.3-12.9-6-19.1-8.1c0.8-2.4,1.6-4.5,2.3-6.3
				c0.9-2.2,1.9-4.2,2.9-6.2c0.5,0.1,1,0.2,1.5,0.2c4.2,0,7.6-3.4,7.6-7.6c0-1.2-0.3-2.3-0.8-3.4c2.4-2,4.8-2.9,7.1-2.9
				C712.5,7.8,719.5,17.4,724.4,33.3z"/>
		</g>
	</g>
</g>
<path class="st0" d="M693.4,75.6c-1.9-4.3,1.4-9,1.4-9s3.3,0.8,5.7,3.1c0.8,0.8,1.7,1.6,2.2,2.7c0.2,0.3,0.6,1.2,0.7,1.6
	c-0.6,0.5-1.2,0.9-1.6,1.5c-0.5,0.8-1,1.7-1.1,2.7c-1.5-1.5-3.9-2.2-6.9-1.7L693.4,75.6z"/>
<path class="st0" d="M708.4,71.8c-1.4,0.2-2.6,0.6-3.7,1.2c-0.1-0.1-0.1-0.3-0.2-0.4c-0.7-1.4-1.5-2.6-2.7-3.6
	c2.7-1.9,6.4-1.9,6.4-1.9S709.3,69.4,708.4,71.8z"/>
<path class="st0" d="M715.3,80.3c0,2.8-1.8,5.2-4.3,6.1c-1.4-2-3.8-3.3-6.4-3.3c-0.5,0-1.1,0.1-1.6,0.2c-0.5-0.9-0.7-1.9-0.7-3
	c0-3.6,2.9-6.5,6.5-6.5S715.3,76.7,715.3,80.3z"/>
<path class="st0" d="M696.7,91c-0.4,0.1-0.9,0.1-1.3,0.1c-3.6,0-6.5-2.9-6.5-6.5c0-3.6,2.9-6.5,6.5-6.5c3.3,0,6,2.4,6.5,5.6
	C698.8,84.8,696.7,87.7,696.7,91z"/>
<path class="st0" d="M711.3,91.6c0,3.6-2.9,6.5-6.5,6.5s-6.5-2.9-6.5-6.5c0-0.2,0-0.4,0-0.6c0.2-2.4,1.7-4.4,3.8-5.3
	c0.6-0.3,1.3-0.5,2-0.6c0.2,0,0.5,0,0.7,0c2,0,3.7,0.9,4.9,2.2C710.7,88.4,711.3,89.9,711.3,91.6z"/>
<g>
	<path class="st0" d="M72,28.5c6.2,1.6,11.8,4,16.9,7.2s9.4,7.2,12.9,12s5.5,10.4,6,16.7v69.3H82.4V69.7c-0.2-3.4-1.3-6.4-3.2-9
		s-4.2-4.8-6.9-6.6c-2.7-1.8-5.8-3.2-9.1-4.1c-3.3-0.9-6.4-1.4-9.4-1.4H25.4v85.2H0V26.1h54.2C59.9,26.1,65.9,26.9,72,28.5z"/>
	<path class="st0" d="M155.8,132c-6.3-1.7-12-4.1-17-7.4c-5-3.2-9.2-7.2-12.5-12c-3.3-4.7-5.2-10.2-5.7-16.3V26.9h25.4v66.9
		c1.9,6,5.4,10.5,10.6,13.6c5.2,3.1,11.1,4.7,17.8,4.7c3,0,6.1-0.5,9.4-1.4c3.3-0.9,6.3-2.3,9.1-4.1c2.7-1.8,5-4,6.9-6.6
		s2.9-5.6,3.2-9V26.9h25.4v69.3c-0.5,6.4-2.5,11.9-6,16.7c-3.5,4.8-7.8,8.8-12.9,12c-5.1,3.2-10.7,5.6-16.9,7.2
		c-6.2,1.6-12.1,2.4-17.8,2.4C168.4,134.5,162,133.7,155.8,132z"/>
	<path class="st0" d="M339.9,49.3h-36.4v84.5h-25.6V49.3h-36.8V26.9h98.9V49.3z"/>
	<path class="st0" d="M435.2,120.3c-0.4-1.5-1.1-3.4-2.1-5.6s-2.3-4.4-3.8-6.4c-1.6-2-3.3-3.7-5.3-5.1c-2-1.4-4.2-2.1-6.5-2.1h-29.7
		V76h16.6c9.5,0,16.9-1,22.2-2.9s8-5.5,8-10.6c0-2.7-1-5-3.1-6.6c-2.1-1.7-4.6-3-7.6-4s-6.3-1.7-9.8-2.1c-3.6-0.4-6.8-0.6-9.8-0.6
		H378v84.5h-25.4V26.9h54c5.7,0,11.8,0.3,18.1,0.8c6.4,0.6,12.2,2,17.6,4.4c5.4,2.4,9.7,5.9,13.2,10.5c3.4,4.6,5.1,11,5.1,19.2
		c0,7.4-1.3,13-3.9,17c-2.6,4-6.1,7.4-10.5,10.3c4.4,3.2,7.8,7.4,10.5,12.6c2.6,5.2,3.9,10.1,3.9,14.9v17.2h-25.4V120.3z"/>
	<path class="st0" d="M473.3,26.9h25.4v106.9h-25.4V26.9z"/>
	<path class="st0" d="M583.5,28.5c6.2,1.6,11.8,4,16.9,7.2c5.1,3.2,9.4,7.2,12.9,12s5.5,10.4,6,16.7v69.3h-25.4V69.7
		c-0.2-3.4-1.3-6.4-3.2-9c-1.9-2.6-4.2-4.8-6.9-6.6c-2.7-1.8-5.8-3.2-9.1-4.1c-3.3-0.9-6.4-1.4-9.4-1.4h-28.4v85.2h-25.4V26.1h54.2
		C571.4,26.1,577.3,26.9,583.5,28.5z"/>
</g>
<g>
	<path class="st0" d="M810.3,27.7v51.6c7.1,9.3,16.6,19.3,28.6,29.9c4.7-3.9,9.5-8.2,14.2-13.1c4.7-4.9,9.5-10.5,14.2-16.8V27.7
		h25.4v59.4c-6.5,8-13.6,16.2-21.5,24.7s-16.4,16.1-25.8,22.8H832c-8.1-6.7-16.4-14-24.9-22c-8.5-7.9-15.9-16.4-22.2-25.5V27.7
		H810.3z"/>
	<path class="st0" d="M977.4,29.4c6.2,1.6,11.8,4,16.9,7.2c5.1,3.2,9.4,7.2,12.9,12s5.5,10.4,6,16.7v69.3h-25.4v-32.5h-47.3V76.7
		h47.3v-6.2c-0.2-3.4-1.3-6.4-3.2-9c-1.9-2.6-4.2-4.8-6.9-6.6c-2.7-1.8-5.8-3.2-9.1-4.1c-3.3-0.9-6.4-1.4-9.4-1.4
		c-6.7,0-12.7,1.6-17.8,4.7c-5.2,3.1-8.7,7.7-10.6,13.6v66.9h-25.4V65.1c0.5-6.1,2.4-11.5,5.7-16.3c3.3-4.7,7.5-8.7,12.5-12
		c5-3.2,10.7-5.7,17-7.4c6.3-1.7,12.6-2.5,19-2.5C965.3,27,971.3,27.8,977.4,29.4z"/>
</g>
</svg>
